<svg xmlns="http://www.w3.org/2000/svg" viewBox="0 0 320 220" fill="none"><defs><linearGradient id="body" x2="1" y2="1"><stop stop-color="#3b506e"/><stop offset="1" stop-color="#101c34"/></linearGradient><linearGradient id="screen" x2="1" y2="1"><stop stop-color="#07163b"/><stop offset=".55" stop-color="#154cb7"/><stop offset="1" stop-color="#54caff"/></linearGradient><linearGradient id="metal" x2="0" y2="1"><stop stop-color="#c8d8eb"/><stop offset="1" stop-color="#6a829f"/></linearGradient><linearGradient id="pcb" x2="1" y2="1"><stop stop-color="#145b84"/><stop offset="1" stop-color="#0a2c55"/></linearGradient></defs><rect x="86" y="37" width="146" height="145" rx="8" fill="url(#body)" stroke="#506a8b" stroke-width="3"/><circle cx="159" cy="110" r="60" fill="#10213d" stroke="#526582" stroke-width="3"/><circle cx="159" cy="110" r="54" fill="none" stroke="#52c7fb" stroke-width="2"/><path d="M159 105q-25 -22 -10 -58q22 5 15 26Z" fill="#355e85" transform="rotate(0 159 110)"/><path d="M159 105q-25 -22 -10 -58q22 5 15 26Z" fill="#355e85" transform="rotate(60 159 110)"/><path d="M159 105q-25 -22 -10 -58q22 5 15 26Z" fill="#355e85" transform="rotate(120 159 110)"/><path d="M159 105q-25 -22 -10 -58q22 5 15 26Z" fill="#355e85" transform="rotate(180 159 110)"/><path d="M159 105q-25 -22 -10 -58q22 5 15 26Z" fill="#355e85" transform="rotate(240 159 110)"/><path d="M159 105q-25 -22 -10 -58q22 5 15 26Z" fill="#355e85" transform="rotate(300 159 110)"/><circle cx="159" cy="110" r="7" fill="#73d4f3"/><circle cx="100" cy="51" r="4" fill="#9abbd2"/><circle cx="100" cy="169" r="4" fill="#9abbd2"/><circle cx="218" cy="51" r="4" fill="#9abbd2"/><circle cx="218" cy="169" r="4" fill="#9abbd2"/><path d="M125 184v17m17-17v17m17-17v17m17-17v17m17-17v17" stroke="#7e9fba" stroke-width="5"/></svg>

